<svg height="480pt" viewBox="-48 0 479 480" width="480pt" xmlns="http://www.w3.org/2000/svg"><g fill="#9bc9ff"><path d="m104.476562 408v32.878906c-.003906 8.257813 3.273438 16.175782 9.109376 22.011719 5.835937 5.835937 13.753906 9.113281 22.011718 9.109375h209.757813c8.253906.003906 16.171875-3.273438 22.011719-9.109375 5.835937-5.835937 9.113281-13.753906 9.109374-22.011719v-32.878906zm0 0"/><path d="m376.476562 39.121094c.003907-8.257813-3.273437-16.175782-9.109374-22.011719-5.839844-5.835937-13.757813-9.113281-22.011719-9.109375h-209.757813c-8.257812-.003906-16.175781 3.273438-22.011718 9.109375-5.835938 5.835937-9.113282 13.753906-9.109376 22.011719v16.878906h272zm0 0"/><path d="m8.476562 152v160l80-80zm0 0"/><path d="m168.476562 232 80 80v-160zm0 0"/><path d="m128.476562 272 120-120h-240zm0 0"/><path d="m248.476562 312-80-80-40 40-40-40-80 80zm0 0"/></g><path d="m345.355469 0h-209.757813c-21.597656.0234375-39.097656 17.523438-39.121094 39.121094v104.878906h-88c-.128906 0-.25.046875-.367187.054688-.394531.027343-.785156.085937-1.167969.175781-.398437.066406-.789062.164062-1.167968.289062-.121094 0-.242188 0-.363282.089844-.222656.117187-.4375.246094-.644531.390625-.363281.179688-.710937.390625-1.042969.625-.585937.472656-1.125 1.011719-1.597656 1.597656-.234375.332032-.445312.679688-.625 1.042969-.144531.207031-.273438.421875-.390625.644531-.050781.121094-.050781.25-.089844.363282-.125.378906-.222656.765624-.289062 1.160156-.089844.386718-.148438.777344-.175781 1.175781 0 .125-.054688.238281-.054688.367187v160.023438c0 .128906.046875.238281.054688.367188.027343.398437.085937.789062.175781 1.175781.066406.394531.164062.78125.289062 1.160156 0 .113281 0 .242187.089844.359375.117187.226562.246094.441406.390625.648438.179688.363281.390625.710937.625 1.042968.472656.585938 1.011719 1.125 1.597656 1.597656.332032.234376.679688.445313 1.042969.625.207031.140626.421875.273438.644531.390626.097656.039062.203125 0 .296875.058593.882813.355469 1.820313.550781 2.769531.574219h88v120.878906c.023438 21.597656 17.523438 39.097656 39.121094 39.121094h209.757813c21.597656-.023438 39.097656-17.523438 39.121093-39.121094v-401.757812c-.023437-21.597656-17.523437-39.0976565-39.121093-39.121094zm-209.757813 16h209.757813c12.765625.011719 23.105469 10.355469 23.121093 23.121094v8.878906h-256v-8.878906c.011719-12.765625 10.355469-23.109375 23.121094-23.121094zm93.597656 144-100.71875 100.6875-100.6875-100.6875zm11.28125 132.6875-60.6875-60.6875 60.6875-60.6875zm-224-121.375 60.6875 60.6875-60.6875 60.6875zm72 72 34.34375 34.34375c3.125 3.121094 8.1875 3.121094 11.3125 0l34.34375-34.34375 60.6875 60.6875h-201.375zm160 76.6875c.949219-.015625 1.886719-.203125 2.765626-.550781.097656 0 .203124 0 .296874-.058594.222657-.117187.441407-.246094.648438-.390625.363281-.179688.710938-.390625 1.039062-.625.589844-.472656 1.125-1.011719 1.601563-1.597656.234375-.332032.445313-.679688.625-1.042969.140625-.207031.273437-.421875.390625-.644531.046875-.121094.046875-.25.089844-.363282.121094-.375.21875-.761718.285156-1.152343.089844-.390625.152344-.789063.175781-1.191407 0-.117187.058594-.230468.058594-.359374v-160.023438c0-.128906-.050781-.238281-.058594-.359375-.023437-.402344-.085937-.800781-.175781-1.191406-.066406-.390625-.164062-.777344-.285156-1.152344-.042969-.113281-.042969-.242187-.089844-.359375-.117188-.226562-.25-.441406-.390625-.648438-.179687-.363281-.390625-.710937-.625-1.042968-.476563-.585938-1.011719-1.125-1.601563-1.597656-.328124-.234376-.675781-.445313-1.039062-.625-.207031-.140626-.425781-.273438-.648438-.390626-.117187-.046874-.246093-.046874-.367187-.089843-.367187-.125-.746094-.222657-1.128906-.285157-.398438-.089843-.804688-.152343-1.214844-.179687-.121094 0-.230469-.054687-.351563-.054687h-136v-80.023438h256v336h-256v-80zm96.878907 144h-209.757813c-12.765625-.011719-23.109375-10.355469-23.121094-23.121094v-24.878906h256v24.878906c-.015624 12.765625-10.355468 23.109375-23.121093 23.121094zm0 0" fill="#1e81ce"/><path d="m200.476562 432h16v16h-16zm0 0" fill="#1e81ce"/><path d="m232.476562 432h16v16h-16zm0 0" fill="#1e81ce"/><path d="m264.476562 432h16v16h-16zm0 0" fill="#1e81ce"/></svg>